<svg enable-background="new 0 0 1510.1 240.3" viewBox="0 0 1510.1 240.3" xmlns="http://www.w3.org/2000/svg"><path d="m203.2 233.3-143.7-151.2v95.7c0 24.7 11.5 37.2 34.5 37.2v14.2h-84.3v-14.2c18.6 0 28.4-12.5 28.4-37.2v-146.8c0-7.1-11.5-11.2-33.1-11.2v-14.8h63.9l126.8 136v-87c0-23-11.8-34.2-34.2-34.2v-14.8h83.9v14.9c-20.3 0-30.8 11.2-30.8 34.2v176.2zm189.7-21c-3.7 13.2-19.3 20.6-34.5 20.6-13.2 0-27.7-5.4-32.1-19.3-12.4 13.2-25 19.3-43.3 19.3-23 0-41.3-10.5-41.3-34.8 0-30.1 28.4-46 81.5-55.1v-10.8c0-22.7-3.3-29-18.6-30.1-9.5-.7-24.7 2.4-24.7 14.9 1.7 2.4 3 6.1 3 10.5 0 9.5-6.4 14.6-17.3 14.5-9.7-.1-15.6-5.4-15.6-16.2 0-22.3 19.3-40.6 58.9-40.6 33.1 0 58.5 12.9 58.5 46v71c0 6.4 3 10.1 8.5 10.1 3.4 0 6.4-1.7 10.5-4.1zm-68.7-54.1c-25.7 4.1-37.9 11.5-37.9 35.5 0 16.2 5.7 20.3 16.2 20.3 23 0 21.6-19.7 21.6-32.1.1-12.4.1-23.7.1-23.7zm272.3 71.1v-14.3c14.2 0 19.6-4.7 19.6-14.2v-59.5c0-22.3-6.8-34.5-23.7-34.5-13.5 0-22.7 7.8-28.8 26v62.9c0 12.5 5.7 19.3 19.6 19.3v14.2h-82.2v-14.2c13.2 0 18.3-7.1 18.3-20.3v-45c0-29.8-6.8-43-25-43s-27.7 13.3-27.7 38.3v54.8c0 9.8 6.1 15.2 19.6 15.2v14.2h-82.5v-14.2c12.5 0 18.6-4.7 18.6-14.2v-83.5c0-5.1-7.4-7.8-22.3-7.8v-12.8l62.9-11.8c2 2 2.7 4.4 2.7 9.1v12.2c10.8-12.9 27.1-20.6 44.6-20.6 17.3 0 32.8 7.4 41.9 24 13.2-16.9 30.8-24 51.4-24 26.7 0 55.8 11.8 55.8 49.4v66c0 9.5 7.1 14.2 21.3 14.2v14.2h-84.1zm230.1-35.2c-13.2 26.4-31.1 41.3-62.6 41.3-41.6 0-72.4-26-72.4-73.7 0-48.7 31.8-76.4 74.1-76.4 41.3 0 63.9 26 63.9 61.2 0 2.7 0 6.1-.3 9.1h-87.6c-2.4 0-3.7 1-3.7 2.7 0 30.8 10.8 55.1 36.5 55.1 18.3 0 30.8-12.5 41.3-27.1zm-52.6-52.5c8.1 0 11.5-4.1 11.5-13.9 0-11.5-5.6-27.1-22.9-27.1-18.9 0-24.7 19.6-24.7 38.9 0 1.4 1.4 2 5.1 2h31zm273.8 57.2c-10.5 26.7-37.2 36.5-60.5 36.5-37.9 0-68-25.7-68-72.7 0-49 32.8-77.5 76.4-77.5 36.9 0 49 20.3 49 32.8 0 15.3-7.8 19.2-18.4 19.2s-18.3-6.1-17.1-17.2c.2-1.7 1.4-7.1 1.4-10.1 0-7.1-8.8-10.5-16.9-10.5-23.3 0-27.4 29.1-27.4 53.8 0 32.1 6.8 59.2 34.8 59.2 14.2 0 25.4-6.8 34.2-20.3zm88.8 36.5c-40.3 0-76.1-25.7-76.1-76.1 0-52.4 38.9-74.1 77.5-74.1 42.3 0 77.1 26 77.1 74.8-.1 51.8-39.6 75.4-78.5 75.4zm31.4-66.6c0-25-.7-68-31.1-68-28.1 0-28.8 35.9-28.8 47.7 0 28.8 0 71.7 31.5 71.7 28.1 0 28.4-33.8 28.4-51.4zm252.9 60.6v-14.3c14.2 0 19.6-4.7 19.6-14.2v-59.5c0-22.3-6.8-34.5-23.7-34.5-13.5 0-22.7 7.8-28.8 26v62.9c0 12.5 5.8 19.3 19.6 19.3v14.2h-82.2v-14.2c13.2 0 18.3-7.1 18.3-20.3v-45c0-29.8-6.8-43-25-43-18.3 0-27.7 13.2-27.7 38.2v54.8c0 9.8 6.1 15.2 19.6 15.2v14.2h-82.5v-14.1c12.5 0 18.6-4.7 18.6-14.2v-83.5c0-5.1-7.4-7.8-22.3-7.8v-12.8l62.9-11.8c2 2 2.7 4.4 2.7 9.1v12.2c10.8-12.9 27.1-20.6 44.6-20.6 17.3 0 32.8 7.4 41.9 24 13.2-16.9 30.8-24 51.4-24 26.7 0 55.8 11.8 55.8 49.4v66c0 9.5 7.1 14.2 21.3 14.2v14.2h-84.1z" fill="#fff"/><circle cx="873.9" cy="208.7" fill="#6eda78" r="25.3"/></svg>