<svg id="レイヤー_1" data-name="レイヤー 1" xmlns="http://www.w3.org/2000/svg" viewBox="0 0 300 300"><defs><style>.cls-1{fill:#6edbd1;}.cls-1,.cls-10,.cls-3,.cls-4,.cls-5{stroke:#000;}.cls-1,.cls-10,.cls-3,.cls-4,.cls-5,.cls-7{stroke-linecap:round;}.cls-1,.cls-10,.cls-5,.cls-7{stroke-width:3px;}.cls-1,.cls-10,.cls-2,.cls-3,.cls-4,.cls-5,.cls-6,.cls-7{fill-rule:evenodd;}.cls-3,.cls-4,.cls-5,.cls-6{fill:#fff;}.cls-3{stroke-width:2.91px;}.cls-4{stroke-width:2.82px;}.cls-10,.cls-7{fill:#f6d2a2;}.cls-7{stroke:#231f20;}.cls-8{fill:#febd15;}.cls-9{font-size:130.48px;font-family:Arial-BoldMT, Arial;font-weight:700;}</style></defs><title>ddnsgopher.icon</title><path class="cls-1" d="M27.31,93.21C-21.42,79.51,14.81,17.51,54,43Z"/><path class="cls-1" d="M243.83,38.36c38.57-27.09,73.43,34,28.6,49.42Z"/><path class="cls-2" d="M29.34,76.09c-6.43-3.4-11.14-8-7.21-15.46C25.77,53.75,32.53,54.5,39,57.9Z"/><path class="cls-2" d="M262.27,69.62c6.43-3.4,11.15-8,7.21-15.45-3.64-6.89-10.4-6.14-16.83-2.74Z"/><path class="cls-1" d="M286.18,300.15c.34-23.18-2.14-47.14-3.42-69-2.1-35.74.3-72-3.43-107.23-.21-2,4.06-5.13,3.81-7.14-.22-1.71-4.95-2.29-5.2-4A197.91,197.91,0,0,0,265.7,66.46c-18.2-35.8-49.18-48.33-84.54-52.25-3.11-.34-3.88-4.71-7-4.93-2.08-.15-6.55,3.82-8.65,3.72-6-.28-12-.39-18.12-.39-24.14,1.91-47.5,5.51-67.46,14.08-3.81,1.63-9.76-1.51-13.31.51-3.15,1.8-3.94,8.72-6.86,10.86-14,10.27-25.13,24.63-31.93,44.86-2.76,8.23,1.52,21-5.94,24.76-12,6.15-1.55,12.56-1.87,18.86-1.9,38,6.3,76.48,4.75,114.88-.66,16.19-3.48,40.24-4.54,58.73"/><path class="cls-3" d="M156,78.1c8.76,50.92,92,37.46,80-13.89C225.27,18.15,153,30.9,156,78.1"/><path class="cls-4" d="M56.49,86.34c11.35,44.33,82.33,33,79.65-11.49-3.2-53.25-90.5-43-79.65,11.49"/><ellipse cx="150.96" cy="159.38" rx="25.39" ry="32.86"/><path class="cls-5" d="M166,139.21c0,6.62,1.5,14,.25,21.09-1.69,3.2-5,3.53-7.87,4.83a11.59,11.59,0,0,1-8.86-6.92c-1-8,.38-15.82.64-23.86Z"/><ellipse cx="98.47" cy="77.62" rx="11.99" ry="12.98"/><path class="cls-6" d="M104.62,77.34c0,3.36-2.33,6.08-5.21,6.08s-5.2-2.72-5.2-6.08,2.33-6.08,5.2-6.08S104.62,74,104.62,77.34Z"/><ellipse cx="198.89" cy="74.38" rx="11.79" ry="12.98"/><path class="cls-6" d="M206.22,74.21c0,4.15-2.83,7.51-6.32,7.51s-6.32-3.36-6.32-7.51,2.83-7.5,6.32-7.5S206.22,70.07,206.22,74.21Z"/><path class="cls-5" d="M131.75,138.49c-5.23,12.67,2.91,38,17.1,19.32-1-8,.38-15.82.63-23.86Z"/><path class="cls-7" d="M133.54,114.08c-9.75.83-17.72,12.42-12.65,21.59,6.71,12.14,21.69-1.08,31,.16,10.73.22,19.53,11.35,28.16,2,9.59-10.39-4.13-20.5-14.86-25Z"/><path class="cls-2" d="M132.31,113.57c-.72-16.88,31.47-19,35.27-4.86s-33.69,17.38-35.27,4.86Z"/><polygon id="lighting_bolt" data-name="lighting bolt" class="cls-8" points="10.65 292.5 171.49 238.88 150.71 214.26 295.68 150.26 190.09 219.74 219.64 250.92 10.65 292.5"/><text class="cls-9" transform="translate(15.68 289.59)">DNS</text><path class="cls-10" d="M28.18,222.19s10.24,19.32.26,18.47c-3.07,12.48-15.52,1.79-15.52,1.79s-4.76-5.64-5-12.91C7.61,219.53,19.84,209.64,28.18,222.19Z"/><path class="cls-10" d="M289,218.12s-21.86-.54-16.65,8c-9.79,8.31,5.33,14.68,5.33,14.68s5.22,3.92,13.78-1.3S302.25,223.86,289,218.12Z"/></svg>